<svg xmlns="http://www.w3.org/2000/svg" width="356" height="108" fill="none">
  <path fill="#FF5100" d="M79.5 49.8a18.9 18.9 0 0 1-19 17.3H50l-20 13v-13l20-13h10.5a5.9 5.9 0 0 0 6-5.3c.7-10 .6-20-.1-30a5.6 5.6 0 0 0-5.2-5 347.1 347.1 0 0 0-42.4 0 5.6 5.6 0 0 0-5.3 5c-.7 10-.7 20-.1 30a5.9 5.9 0 0 0 6 5.3H30v13H19.5a18.9 18.9 0 0 1-19-17.3c-.7-10.6-.7-21.3.1-32A18.6 18.6 0 0 1 17.8.8a312.4 312.4 0 0 1 44.3 0 18.6 18.6 0 0 1 17.3 17c.7 10.7.8 21.4.1 32Z"/>
  <path fill="#1B1B20" d="M100 57.2h31.4v-8h-22V9.7H100v47.6ZM136 57.2h9.2V21.8H136v35.4Zm-.8-44.6A5.4 5.4 0 1 0 146 12a5.4 5.4 0 0 0-10.8.5ZM181.4 21.8h-9.2l-7.6 26-7.6-26h-9.3l12 35.4h9.7l12-35.4ZM198 58c7.8 0 14.1-4.7 15.3-11.2h-8c-1 2.5-3.4 4.5-7.3 4.5-5.4 0-7.5-3.6-7.5-7.7v-1h23.1v-6.1c0-8.5-5.3-15.5-15.8-15.5-10.4 0-16.3 6.8-16.3 16.4v4.8c0 9.9 6.5 15.8 16.5 15.8Zm-7.5-22.2c0-4.8 2-8.3 7.3-8.3 5 0 7.3 3.3 7.3 7.8v.8h-14.6v-.3ZM238.2 58.1c12 0 19.4-8.2 19.9-17.9h-8.8c-.7 5.4-4 10-11.1 10-8 0-11.4-5.4-11.4-13v-7.7c0-7.6 3.4-13 11.4-13 7 0 10.4 4.6 11 10h8.9c-.5-9.7-7.9-17.9-20-17.9-14.3 0-20.7 9.2-20.7 21.4v6.8c0 12.1 6.4 21.3 20.8 21.3ZM263.1 57.2h9.3v-21c0-4.7 2.6-7.2 6.8-7.2 4.5 0 6.4 3 6.4 7v21.2h9.3V34.5c0-8.3-4.9-13.5-12.5-13.5-4.6 0-8.2 2-10 5V7.5H263v49.7ZM312.5 58c4.1 0 8.6-1.7 10.2-4.1v3.3h9V34.6c0-8.2-6.1-13.6-15-13.6-7.6 0-13 3.7-15.1 10.5h8.5c1-1.9 3-3.3 6.2-3.3 3.8 0 6 2.4 6 5.7v4.8c-2.5-2-5.7-3-9-3-8.4 0-14.2 3.6-14.2 11.3 0 6.8 5.5 11 13.4 11Zm2.4-6.1c-3.9 0-6.8-2-6.8-5.2 0-3.3 2.7-5 7-5 4.2 0 7.3 1.8 7.3 5 0 3.1-3.4 5.2-7.5 5.2ZM349 57.2h6.4v-7.5h-3.8c-2.5 0-3.4-1-3.4-3.3V29.3h7.6v-7.5h-7.6v-9.7H339v9.7h-5v7.5h5V47c0 6.3 3.1 10 10 10ZM277.6 99.6h3V96h-1.8c-1.1 0-1.5-.5-1.5-1.6v-8.2h3.6v-3.5h-3.6V78h-4.5v4.7h-2.4v3.5h2.4v8.6c0 3 1.5 4.8 4.8 4.8ZM290.3 100c3.7 0 6.7-2.3 7.3-5.4h-3.8c-.5 1.2-1.6 2.2-3.5 2.2-2.6 0-3.6-1.8-3.6-3.7v-.5h11v-3c0-4-2.5-7.3-7.5-7.3s-7.8 3.2-7.8 7.8v2.3c0 4.8 3.1 7.6 7.9 7.6Zm-3.6-10.6c0-2.3 1-4 3.5-4 2.4 0 3.5 1.6 3.5 3.7v.4h-7v-.1ZM308.8 91l5.7-8.3h-4.6l-3.4 5-3.3-5h-4.6l5.7 8.3-6 8.6h4.7l3.5-5.3 3.6 5.3h4.6l-6-8.6ZM322.2 99.6h3V96h-1.7c-1.2 0-1.6-.5-1.6-1.6v-8.2h3.6v-3.5h-3.6V78h-4.5v4.7H315v3.5h2.4v8.6c0 3 1.6 4.8 4.8 4.8ZM329 104.4h3.9V73.6H329v30.8ZM254.5 105.1h-2.3l2-5.5-6-16h2.4l4.9 13.6 4.7-13.7h2.4l-6 16.1-2 5.5ZM231.4 76.7h2.4v9.2a6 6 0 0 1 5.4-2.7c4 0 6.7 3 6.7 7.2v2.4c0 4-2.5 7.2-6.8 7.2-2.6 0-4.7-1.4-5.4-2.9v2.5h-2.3v-23Zm12 16v-2.2c0-3-1.6-5.4-4.6-5.4-2.7 0-5 2-5 5.4v2c0 3.1 1.7 5.6 5 5.6s4.7-2.4 4.7-5.4ZM217 76.7h2.4v23h-2.3V97c-.6 1.5-2.7 3-5.4 3-4.2 0-6.7-3.3-6.7-7.3v-2.4c0-4.2 2.6-7.2 6.6-7.2a6 6 0 0 1 5.4 2.7v-9.2Zm-9.6 13.8v2.2c0 3 1.4 5.4 4.7 5.4 3.2 0 5-2.5 5-5.6v-2c0-3.3-2.3-5.4-5-5.4-3 0-4.7 2.4-4.7 5.4ZM194.7 100c-4.2 0-7.2-2.7-7.2-7v-2.6c0-4.4 2.5-7.2 7-7.2 4.7 0 6.9 3 6.9 7v2.4h-11.6v.5c0 2.8 1.5 5.1 4.9 5.1 2.4 0 3.9-1.3 4.4-3.1h2.1c-.5 2.9-3.2 5-6.5 5Zm-4.9-9.8v.5h9.4V90c0-2.9-1.5-5-4.6-5-3.5 0-4.8 2.3-4.8 5.2ZM177.5 99.6v-16h2.2v3.6c.6-2.4 2.3-3.8 5.3-3.8h.3v2.3h-.4c-3 0-5 2-5 6v8h-2.4ZM166.4 100c-4.2 0-7.1-2.7-7.1-7v-2.6c0-4.4 2.5-7.2 7-7.2 4.6 0 6.8 3 6.8 7v2.4h-11.5v.5c0 2.8 1.4 5.1 4.8 5.1 2.4 0 3.9-1.3 4.4-3.1h2.2c-.6 2.9-3.3 5-6.6 5Zm-4.8-9.8v.5h9.3V90c0-2.9-1.5-5-4.6-5-3.5 0-4.7 2.3-4.7 5.2ZM156.7 83.5l-4.4 16.1h-2.2L145.8 86l-4.3 13.6h-2.3l-4.4-16h2.3l3.4 13.2 4.2-13.3h2.2l4.2 13.3 3.4-13.3h2.2ZM125.1 100c-4.6 0-7.2-3.1-7.2-7v-2.7c0-4 2.7-7.1 7.2-7.1 4.6 0 7.2 3.1 7.2 7V93c0 4-2.6 7.1-7.2 7.1Zm5-9.7c0-3-1.8-5.2-5-5.2-3.1 0-4.8 2.1-4.8 5.2v2.6c0 3 1.7 5.2 4.8 5.2 3.2 0 5-2.2 5-5.2v-2.6ZM102.4 105.1H100V83.5h2.2V86c.7-1.4 2.8-2.8 5.5-2.8 4.3 0 6.7 3 6.7 7.2v2.4c0 4.2-2.6 7.2-6.7 7.2a6 6 0 0 1-5.3-2.7v7.8Zm9.6-12.4v-2.2c0-3-1.4-5.4-4.7-5.4-3.2 0-5 2.4-5 5.5v2.1c0 3.3 2.3 5.4 5 5.4 3 0 4.7-2.4 4.7-5.4Z"/>
</svg>
